<svg width="17" height="17" viewBox="0 0 17 17" fill="none" xmlns="http://www.w3.org/2000/svg">
<path d="M8.5 0C3.808 0 0 3.808 0 8.5C0 13.192 3.808 17 8.5 17C13.192 17 17 13.192 17 8.5C17 3.808 13.192 0 8.5 0ZM7.65 15.2405C4.2925 14.824 1.7 11.968 1.7 8.5C1.7 7.973 1.768 7.4715 1.8785 6.9785L5.95 11.05V11.9C5.95 12.835 6.715 13.6 7.65 13.6V15.2405ZM13.515 13.0815C13.294 12.393 12.665 11.9 11.9 11.9H11.05V9.35C11.05 8.8825 10.6675 8.5 10.2 8.5H5.1V6.8H6.8C7.2675 6.8 7.65 6.4175 7.65 5.95V4.25H9.35C10.285 4.25 11.05 3.485 11.05 2.55V2.2015C13.5405 3.213 15.3 5.6525 15.3 8.5C15.3 10.268 14.62 11.8745 13.515 13.0815Z" fill="#F24860"/>
</svg>
