<svg width="60" height="36" viewBox="0 0 60 36" fill="none" xmlns="http://www.w3.org/2000/svg">
<rect width="60" height="36" rx="18" fill="#F24860"/>
<path d="M20.066 10.825C20.8027 10.825 21.46 10.9553 22.038 11.216C22.616 11.4767 23.0637 11.8393 23.381 12.304C23.7097 12.7687 23.874 13.3013 23.874 13.902C23.874 14.65 23.6247 15.2903 23.126 15.823C22.6387 16.3557 21.9813 16.7127 21.154 16.894V18.016C22.5027 17.9367 23.67 17.8233 24.656 17.676L24.809 19.206C23.4263 19.4553 21.987 19.6197 20.491 19.699C18.995 19.7783 17.4083 19.818 15.731 19.818L15.476 18.135C16.9947 18.135 18.1847 18.1237 19.046 18.101V16.894C18.2073 16.7353 17.533 16.3897 17.023 15.857C16.5243 15.313 16.275 14.6613 16.275 13.902C16.275 13.3013 16.4337 12.7687 16.751 12.304C17.0797 11.8393 17.533 11.4767 18.111 11.216C18.689 10.9553 19.3407 10.825 20.066 10.825ZM17.482 20.838H19.59V23.456H28.09V25.156H17.482V20.838ZM18.247 13.902C18.247 14.3667 18.4113 14.735 18.74 15.007C19.08 15.2677 19.522 15.398 20.066 15.398C20.6213 15.398 21.0633 15.2677 21.392 15.007C21.732 14.735 21.902 14.3667 21.902 13.902C21.902 13.4373 21.732 13.0747 21.392 12.814C21.0633 12.542 20.6213 12.406 20.066 12.406C19.522 12.406 19.08 12.542 18.74 12.814C18.4113 13.0747 18.247 13.4373 18.247 13.902ZM25.472 10.196H27.58V15.024H29.535V16.758H27.58V21.841H25.472V10.196ZM33.9044 22.028V19.631H32.0004V14.548H40.5344V12.865H31.9664V11.182H42.6254V16.197H34.0914V17.948H42.9824V19.631H40.8064V22.028H44.1894V23.728H30.3854V22.028H33.9044ZM38.7494 22.028V19.631H35.9954V22.028H38.7494Z" fill="white"/>
</svg>
