<svg width="80" height="80" viewBox="0 0 80 80" fill="none" xmlns="http://www.w3.org/2000/svg">
<circle cx="40" cy="40" r="40" fill="black"/>
<circle cx="40" cy="40" r="39" stroke="white" stroke-opacity="0.3" stroke-width="2"/>
<path d="M50.6675 19C49.8063 19 48.9671 19.3313 48.3046 19.9717L43.6229 24.6533L55.3271 36.3796L60.0088 31.7421C61.3338 30.395 61.3338 28.2971 60.0088 27.0162L53.0083 19.9717C52.3458 19.3313 51.5067 19 50.6675 19ZM42.055 26.2212L24.1675 44.1308L29.8208 44.7492L30.2183 49.8063L35.2533 50.1817L35.8938 55.835L53.7813 37.9254L42.055 26.2212ZM22.8646 46.1846L19 60.9583L33.7958 57.0054L33.2658 52.2354L28.1646 51.86L27.7671 46.7367" fill="#F9CF00"/>
</svg>
