<svg width="17" height="19" viewBox="0 0 17 19" fill="none" xmlns="http://www.w3.org/2000/svg">
<path d="M1 4.63889H15.5556M14.6458 4.63889L13.8571 15.6847C13.8244 16.1438 13.619 16.5734 13.2823 16.887C12.9455 17.2006 12.5024 17.375 12.0422 17.375H4.51335C4.05315 17.375 3.61005 17.2006 3.27329 16.887C2.93653 16.5734 2.73112 16.1438 2.69845 15.6847L1.90972 4.63889H14.6458ZM6.45833 8.27778V13.7361V8.27778ZM10.0972 8.27778V13.7361V8.27778ZM11.0069 4.63889V1.90972C11.0069 1.66845 10.9111 1.43706 10.7405 1.26645C10.5699 1.09585 10.3385 1 10.0972 1H6.45833C6.21706 1 5.98567 1.09585 5.81506 1.26645C5.64446 1.43706 5.54861 1.66845 5.54861 1.90972V4.63889H11.0069Z" stroke="white" stroke-width="2" stroke-linecap="round" stroke-linejoin="round"/>
</svg>
