<svg width="4" height="20" viewBox="0 0 4 20" fill="none" xmlns="http://www.w3.org/2000/svg">
<path d="M1 10C1 10.5523 1.44772 11 2 11C2.55228 11 3 10.5523 3 10C3 9.44772 2.55228 9 2 9C1.44772 9 1 9.44772 1 10Z" fill="#F9CF00" stroke="#F9CF00" stroke-width="2" stroke-linecap="round" stroke-linejoin="round"/>
<path d="M1 17C1 17.5523 1.44772 18 2 18C2.55228 18 3 17.5523 3 17C3 16.4477 2.55228 16 2 16C1.44772 16 1 16.4477 1 17Z" fill="#F9CF00" stroke="#F9CF00" stroke-width="2" stroke-linecap="round" stroke-linejoin="round"/>
<path d="M1 3C1 3.55228 1.44772 4 2 4C2.55228 4 3 3.55228 3 3C3 2.44772 2.55228 2 2 2C1.44772 2 1 2.44772 1 3Z" fill="#F9CF00" stroke="#F9CF00" stroke-width="2" stroke-linecap="round" stroke-linejoin="round"/>
</svg>
