<svg width="17" height="13" viewBox="0 0 17 13" fill="none" xmlns="http://www.w3.org/2000/svg">
<path d="M15.9391 11.747C15.9296 11.7486 15.922 11.7495 15.9171 11.75H7.45787C7.45305 11.7495 7.44545 11.7486 7.43588 11.747C7.41388 11.7433 7.39351 11.7381 7.37696 11.7324C7.37583 11.7208 7.375 11.706 7.375 11.6875C7.375 11.3955 7.55487 10.5637 8.19676 9.81485C8.79772 9.11373 9.84519 8.4375 11.6875 8.4375C13.5298 8.4375 14.5773 9.11373 15.1782 9.81485C15.8201 10.5637 16 11.3955 16 11.6875C16 11.706 15.9992 11.7208 15.998 11.7324C15.9815 11.7381 15.9611 11.7433 15.9391 11.747ZM7.38324 11.7664C7.38318 11.7665 7.38274 11.7654 7.38208 11.7632C7.38297 11.7652 7.3833 11.7664 7.38324 11.7664ZM15.9918 11.7664C15.9917 11.7664 15.992 11.7652 15.9929 11.7632C15.9923 11.7655 15.9918 11.7665 15.9918 11.7664ZM13.2343 4.7343C12.8241 5.14453 12.2677 5.375 11.6875 5.375C11.1073 5.375 10.5509 5.14453 10.1407 4.7343C9.73047 4.32406 9.5 3.76766 9.5 3.1875C9.5 2.60734 9.73047 2.05094 10.1407 1.6407C10.5509 1.23047 11.1073 1 11.6875 1C12.2677 1 12.8241 1.23047 13.2343 1.6407C13.6445 2.05094 13.875 2.60734 13.875 3.1875C13.875 3.76766 13.6445 4.32406 13.2343 4.7343Z" stroke="#F24860" stroke-width="2" stroke-linejoin="round"/>
<path d="M5.32413 8.4374C5.33119 8.43732 5.33824 8.43725 5.3453 8.43719C4.67685 9.41842 4.31434 10.547 4.31251 11.6789C4.31215 11.7026 4.31204 11.7263 4.31218 11.75H1.08287C1.07805 11.7495 1.07045 11.7486 1.06088 11.747C1.03888 11.7433 1.01851 11.738 1.00196 11.7323C1.00083 11.7208 1 11.706 1 11.6875C1 11.3955 1.17987 10.5637 1.82176 9.81482C2.42272 9.1137 3.47019 8.43747 5.3125 8.43747V8.43753L5.32413 8.4374ZM1.00824 11.7664C1.00818 11.7665 1.00774 11.7654 1.00708 11.7631C1.00797 11.7652 1.0083 11.7663 1.00824 11.7664Z" stroke="#F24860" stroke-width="2" stroke-linejoin="round"/>
<path d="M5.9524 4.8899C5.64179 5.2005 5.22051 5.375 4.78125 5.375C4.34199 5.375 3.92071 5.2005 3.6101 4.8899C3.2995 4.57929 3.125 4.15801 3.125 3.71875C3.125 3.27949 3.2995 2.85821 3.6101 2.5476C3.92071 2.237 4.34199 2.0625 4.78125 2.0625C5.22051 2.0625 5.64179 2.237 5.9524 2.5476C6.263 2.85821 6.4375 3.27949 6.4375 3.71875C6.4375 4.15801 6.263 4.57929 5.9524 4.8899Z" stroke="#F24860" stroke-width="2" stroke-linejoin="round"/>
</svg>
