<svg width="1100" height="700" viewBox="0 0 1100 700" fill="none" xmlns="http://www.w3.org/2000/svg">
<mask id="mask0_701_4488" style="mask-type:alpha" maskUnits="userSpaceOnUse" x="0" y="0" width="1100" height="700">
<rect width="1100" height="700" rx="25" fill="white"/>
</mask>
<g mask="url(#mask0_701_4488)">
<path d="M-263.421 396.59C-257.332 394.974 -186.699 433.44 -2.3875 333.821C181.924 234.202 173.828 149.132 247.622 94.2641C388.13 -10.1786 474.829 15.5394 583.588 -129" stroke="#BC32EA" stroke-miterlimit="10" stroke-dasharray="6 6"/>
<path d="M-60.6989 150.557C-60.6989 150.557 44.5414 129.969 144.433 49.8609C244.325 -30.2473 256.625 -72.0002 256.625 -72.0002" stroke="#BC32EA" stroke-miterlimit="10" stroke-dasharray="6 6"/>
<path d="M148.45 259.331L150.677 260.706C150.922 260.848 151.334 260.842 151.547 260.475C152.141 259.593 153.032 257.494 153.71 255.762C154.55 253.47 153.753 252.026 153.116 251.575C152.505 251.22 150.733 251.172 149.159 253.039C147.966 254.39 146.586 256.205 145.992 257.087C145.85 257.331 145.953 257.718 146.223 257.957L148.45 259.331Z" stroke="#BC32EA" stroke-miterlimit="10" stroke-linecap="round" stroke-linejoin="round"/>
<path d="M157.393 252.095C157.342 251.902 157.387 251.683 157.458 251.56C158.31 250.093 163.002 242.433 163.189 241.969C163.305 241.628 162.8 238.554 162.66 237.247C162.628 236.738 162.017 236.383 161.559 236.608C160.328 237.038 157.287 238.052 157.048 238.322C156.738 238.715 152.143 246.349 151.195 247.843C151.124 247.965 150.956 248.113 150.763 248.164L143.721 249.309C143.527 249.361 143.334 249.412 143.289 249.631L141.985 251.736C141.843 251.98 141.849 252.393 142.216 252.606L147.256 255.613C147.876 254.828 148.566 253.921 149.211 253.232C150.81 251.462 152.459 251.439 153.168 251.768C153.779 252.123 154.602 253.663 153.762 255.956C153.387 256.883 152.942 257.932 152.567 258.859L157.607 261.867C157.852 262.009 158.264 262.003 158.477 261.636L159.781 259.531C159.852 259.409 159.897 259.19 159.846 258.997L157.393 252.095Z" stroke="#BC32EA" stroke-miterlimit="10" stroke-linecap="round" stroke-linejoin="round"/>
<path d="M126.291 276.801C115.64 273.317 104.76 262.341 102.127 249.693C99.4944 237.045 98.9533 214.737 122.335 204.599C133.904 199.46 147.757 196.3 165.683 208.096" stroke="#BC32EA" stroke-miterlimit="10" stroke-linecap="round" stroke-linejoin="round"/>
<path d="M174.836 218.806C174.836 218.806 184.617 239.282 177.766 253.619C170.915 267.957 158.799 278.829 139.692 279.348" stroke="#BC32EA" stroke-miterlimit="10" stroke-linecap="round" stroke-linejoin="round"/>
<path d="M109.336 271.783C108.21 276.117 108.444 285.573 114.413 287.403C120.382 289.233 131.284 281.58 144.947 263.675" stroke="#BC32EA" stroke-miterlimit="10" stroke-linecap="round" stroke-linejoin="round"/>
<path d="M164.342 231.11C164.342 231.11 177.699 200.354 169.65 192.247C165.422 188.403 155.055 196.121 155.055 196.121" stroke="#BC32EA" stroke-miterlimit="10" stroke-linecap="round" stroke-linejoin="round"/>
<path d="M198.108 254.634C199.015 254.393 199.556 253.462 199.315 252.555C199.074 251.648 198.143 251.107 197.235 251.348C196.328 251.589 195.788 252.52 196.028 253.427C196.269 254.335 197.2 254.875 198.108 254.634Z" stroke="#BC32EA" stroke-miterlimit="10" stroke-linecap="round" stroke-linejoin="round"/>
<path d="M45.2922 246.473C56.0252 243.624 62.4163 232.614 59.5675 221.881C56.7186 211.148 45.7085 204.757 34.9755 207.605C24.2426 210.454 17.851 221.465 20.6999 232.198C23.5487 242.931 34.5592 249.322 45.2922 246.473Z" stroke="#BC32EA" stroke-miterlimit="10" stroke-linecap="round" stroke-linejoin="round"/>
<path d="M118.794 186.192L123.274 189.038" stroke="#BC32EA" stroke-miterlimit="10" stroke-linecap="round" stroke-linejoin="round"/>
<path d="M119.692 189.575L122.273 185.268" stroke="#BC32EA" stroke-miterlimit="10" stroke-linecap="round" stroke-linejoin="round"/>
<path d="M163.071 294.145L167.551 296.991" stroke="#BC32EA" stroke-miterlimit="10"/>
<path d="M163.873 297.554L166.551 293.222" stroke="#BC32EA" stroke-miterlimit="10"/>
<path d="M398.32 73.8182L397.37 81.9335" stroke="#F24860" stroke-miterlimit="10" stroke-linecap="round" stroke-linejoin="round"/>
<path d="M394.052 77.2275L401.922 78.0354" stroke="#F24860" stroke-miterlimit="10" stroke-linecap="round" stroke-linejoin="round"/>
<path d="M315.067 70.2597C319.178 69.1687 321.625 64.9523 320.534 60.842C319.443 56.7318 315.227 54.2842 311.117 55.3752C307.006 56.4662 304.559 60.6826 305.65 64.7929C306.741 68.9031 310.957 71.3507 315.067 70.2597Z" stroke="#BC32EA" stroke-miterlimit="10" stroke-linecap="round" stroke-linejoin="round"/>
<path d="M316.219 66.0225C318.674 65.3707 320.137 62.8518 319.485 60.3963C318.833 57.9409 316.314 56.4786 313.859 57.1304C311.403 57.7822 309.941 60.3011 310.593 62.7566C311.244 65.2121 313.763 66.6743 316.219 66.0225Z" stroke="#BC32EA" stroke-miterlimit="10" stroke-linecap="round" stroke-linejoin="round"/>
<path d="M332.539 40.5841C333.5 40.3291 334.072 39.3434 333.817 38.3826C333.562 37.4217 332.576 36.8496 331.615 37.1046C330.654 37.3597 330.082 38.3453 330.337 39.3062C330.592 40.267 331.578 40.8392 332.539 40.5841Z" stroke="#BC32EA" stroke-miterlimit="10" stroke-linecap="round" stroke-linejoin="round"/>
<path d="M331.714 169.614C332.621 169.374 333.161 168.443 332.921 167.535C332.68 166.628 331.749 166.087 330.841 166.328C329.934 166.569 329.394 167.5 329.634 168.408C329.875 169.315 330.806 169.855 331.714 169.614Z" fill="#BC32EA"/>
<path fill-rule="evenodd" clip-rule="evenodd" d="M1223.86 447.017C1224.49 446.707 1225.02 446.468 1225.45 446.299C1225.89 446.128 1226.2 446.041 1226.39 446.017L1226.27 445.025C1225.95 445.064 1225.55 445.188 1225.09 445.368C1224.62 445.551 1224.06 445.803 1223.42 446.121L1223.86 447.017ZM1213.66 452.876C1215.53 451.731 1217.22 450.714 1218.73 449.837L1218.22 448.973C1216.71 449.855 1215.01 450.875 1213.13 452.023L1213.66 452.876ZM1203.67 459.118C1205.42 458.007 1207.08 456.957 1208.66 455.97L1208.13 455.122C1206.55 456.11 1204.88 457.162 1203.13 458.273L1203.67 459.118ZM1193.69 465.499C1195.41 464.393 1197.07 463.325 1198.68 462.296L1198.14 461.454C1196.53 462.483 1194.87 463.551 1193.15 464.658L1193.69 465.499ZM1183.8 471.884C1185.48 470.796 1187.12 469.732 1188.73 468.697L1188.19 467.857C1186.58 468.893 1184.94 469.956 1183.25 471.045L1183.8 471.884ZM1173.86 478.324C1175.55 477.227 1177.21 476.15 1178.84 475.093L1178.3 474.254C1176.67 475.311 1175 476.388 1173.31 477.485L1173.86 478.324ZM1163.97 484.729C1165.65 483.646 1167.3 482.577 1168.92 481.524L1168.38 480.685C1166.75 481.738 1165.1 482.806 1163.43 483.89L1163.97 484.729ZM1154.05 491.147C1155.72 490.073 1157.36 489.009 1158.99 487.957L1158.44 487.118C1156.82 488.169 1155.17 489.233 1153.51 490.307L1154.05 491.147ZM1144.11 497.558C1145.79 496.481 1147.45 495.412 1149.09 494.352L1148.55 493.512C1146.9 494.571 1145.25 495.64 1143.57 496.718L1144.11 497.558ZM1134.17 503.943C1135.85 502.869 1137.51 501.801 1139.16 500.741L1138.62 499.899C1136.97 500.959 1135.31 502.027 1133.63 503.101L1134.17 503.943ZM1124.22 510.292C1125.9 509.227 1127.56 508.167 1129.21 507.112L1128.67 506.269C1127.02 507.324 1125.36 508.384 1123.69 509.449L1124.22 510.292ZM1114.26 516.617C1115.93 515.56 1117.59 514.507 1119.24 513.457L1118.71 512.613C1117.06 513.662 1115.39 514.715 1113.72 515.772L1114.26 516.617ZM1104.26 522.91C1105.93 521.861 1107.6 520.815 1109.26 519.771L1108.72 518.924C1107.07 519.968 1105.4 521.015 1103.73 522.063L1104.26 522.91ZM1094.24 529.166C1095.92 528.126 1097.59 527.086 1099.25 526.048L1098.72 525.2C1097.06 526.238 1095.39 527.277 1093.71 528.317L1094.24 529.166ZM1084.2 535.381C1085.87 534.349 1087.55 533.316 1089.22 532.284L1088.69 531.433C1087.02 532.465 1085.35 533.498 1083.67 534.529L1084.2 535.381ZM1074.12 541.548C1075.8 540.524 1077.48 539.499 1079.16 538.473L1078.64 537.62C1076.96 538.646 1075.28 539.671 1073.6 540.694L1074.12 541.548ZM1064.01 547.662C1065.7 546.648 1067.39 545.631 1069.07 544.612L1068.55 543.757C1066.87 544.775 1065.18 545.791 1063.5 546.805L1064.01 547.662ZM1053.87 553.717C1055.56 552.714 1057.25 551.707 1058.95 550.697L1058.43 549.838C1056.74 550.848 1055.05 551.854 1053.36 552.856L1053.87 553.717ZM1043.69 559.704C1045.38 558.714 1047.08 557.719 1048.78 556.719L1048.28 555.857C1046.58 556.856 1044.88 557.851 1043.18 558.84L1043.69 559.704ZM1035.33 564.541C1036.41 563.921 1037.49 563.297 1038.58 562.672L1038.08 561.806C1036.79 562.548 1035.51 563.287 1034.23 564.022C1034.6 564.193 1034.97 564.366 1035.33 564.541ZM946.611 606.69C948.55 606.098 950.498 605.48 952.458 604.832L952.144 603.882C950.192 604.528 948.25 605.144 946.319 605.734L946.611 606.69ZM934.846 609.997C936.803 609.493 938.768 608.965 940.742 608.41L940.471 607.448C938.504 608 936.546 608.527 934.596 609.029L934.846 609.997ZM922.941 612.799C924.926 612.374 926.917 611.927 928.914 611.458L928.685 610.484C926.695 610.952 924.711 611.397 922.731 611.821L922.941 612.799ZM910.944 615.139C912.944 614.785 914.946 614.413 916.951 614.023L916.76 613.041C914.76 613.431 912.764 613.801 910.77 614.155L910.944 615.139ZM898.881 617.095C900.895 616.796 902.908 616.485 904.921 616.159L904.761 615.172C902.753 615.497 900.744 615.807 898.734 616.106L898.881 617.095ZM886.78 618.76C888.802 618.501 890.82 618.234 892.834 617.957L892.698 616.967C890.687 617.243 888.673 617.509 886.653 617.768L886.78 618.76ZM874.65 620.243C876.68 620.004 878.703 619.763 880.719 619.518L880.598 618.525C878.584 618.77 876.563 619.011 874.533 619.25L874.65 620.243ZM862.533 621.648C863.647 621.519 864.757 621.391 865.865 621.264C866.776 621.158 867.685 621.053 868.592 620.949L868.477 619.955C867.56 620.061 866.639 620.168 865.717 620.274C864.62 620.4 863.521 620.527 862.418 620.655L862.533 621.648ZM850.397 623.082C852.434 622.834 854.458 622.592 856.469 622.355L856.352 621.362C854.34 621.599 852.315 621.841 850.276 622.089L850.397 623.082ZM838.312 624.622C840.342 624.35 842.355 624.087 844.354 623.833L844.228 622.841C842.227 623.096 840.211 623.358 838.179 623.631L838.312 624.622ZM826.22 626.351C828.25 626.041 830.264 625.745 832.261 625.46L832.12 624.47C830.12 624.756 828.103 625.052 826.069 625.362L826.22 626.351ZM814.194 628.31C816.218 627.957 818.224 627.62 820.213 627.296L820.052 626.309C818.06 626.634 816.05 626.972 814.022 627.325L814.194 628.31ZM802.213 630.541C804.218 630.142 806.206 629.761 808.175 629.394L807.992 628.411C806.019 628.778 804.028 629.161 802.018 629.56L802.213 630.541ZM790.267 633.07C792.272 632.619 794.258 632.186 796.227 631.769L796.019 630.791C794.047 631.208 792.057 631.642 790.047 632.094L790.267 633.07ZM778.381 635.904C780.388 635.398 782.375 634.911 784.344 634.442L784.112 633.469C782.139 633.94 780.147 634.428 778.137 634.935L778.381 635.904ZM766.617 639.03C768.603 638.475 770.57 637.939 772.519 637.422L772.262 636.455C770.309 636.974 768.338 637.511 766.348 638.066L766.617 639.03ZM754.926 642.453C756.89 641.851 758.837 641.269 760.766 640.704L760.485 639.744C758.552 640.31 756.601 640.894 754.633 641.497L754.926 642.453ZM743.314 646.164C745.259 645.517 747.186 644.888 749.096 644.278L748.792 643.325C746.878 643.937 744.947 644.567 742.999 645.215L743.314 646.164ZM731.789 650.147C733.716 649.457 735.625 648.784 737.519 648.13L737.192 647.185C735.295 647.84 733.382 648.514 731.451 649.206L731.789 650.147ZM720.35 654.388C722.262 653.655 724.159 652.941 726.039 652.243L725.691 651.306C723.808 652.004 721.908 652.72 719.992 653.454L720.35 654.388ZM711.774 657.75C712.739 657.363 713.7 656.981 714.657 656.603L714.29 655.673C713.331 656.051 712.369 656.434 711.402 656.822C710.434 657.21 709.472 657.599 708.516 657.988L708.892 658.914C709.847 658.526 710.808 658.138 711.774 657.75ZM697.625 663.632C699.471 662.837 701.341 662.042 703.234 661.249L702.848 660.327C700.951 661.121 699.078 661.917 697.229 662.714L697.625 663.632ZM686.454 668.592C688.28 667.757 690.13 666.923 692.006 666.09L691.6 665.176C689.721 666.011 687.867 666.846 686.039 667.682L686.454 668.592ZM675.393 673.807C677.199 672.929 679.032 672.051 680.892 671.174L680.465 670.27C678.602 671.148 676.766 672.028 674.956 672.907L675.393 673.807ZM664.458 679.292C666.245 678.367 668.061 677.441 669.906 676.516L669.457 675.622C667.609 676.549 665.789 677.477 663.999 678.404L664.458 679.292ZM653.674 685.061C655.44 684.084 657.238 683.107 659.068 682.128L658.596 681.246C656.763 682.227 654.961 683.207 653.19 684.186L653.674 685.061ZM643.07 691.126C644.811 690.096 646.586 689.063 648.395 688.029L647.899 687.16C646.085 688.197 644.306 689.233 642.561 690.266L643.07 691.126ZM632.687 697.496C634.37 696.426 636.088 695.352 637.844 694.275L637.321 693.423C635.561 694.503 633.838 695.579 632.151 696.653L632.687 697.496ZM622.468 704.248C624.115 703.117 625.801 701.981 627.529 700.84L626.978 700.006C625.245 701.15 623.553 702.29 621.902 703.424L622.468 704.248ZM612.538 711.348C614.146 710.149 615.8 708.942 617.499 707.728L616.918 706.914C615.213 708.133 613.554 709.343 611.941 710.546L612.538 711.348ZM602.891 718.858C604.432 717.602 606.024 716.335 607.667 715.056L607.053 714.267C605.404 715.55 603.807 716.822 602.259 718.082L602.891 718.858ZM593.623 726.774C595.094 725.453 596.622 724.115 598.209 722.76L597.56 722C595.967 723.36 594.432 724.704 592.955 726.029L593.623 726.774ZM584.763 735.166C586.153 733.773 587.611 732.352 589.138 730.906L588.451 730.18C586.917 731.632 585.452 733.06 584.055 734.46L584.763 735.166ZM576.402 744.085C577.688 742.619 579.056 741.109 580.51 739.559L579.781 738.875C578.319 740.433 576.943 741.951 575.65 743.425L576.402 744.085ZM568.721 753.534C569.86 752.011 571.107 750.409 572.47 748.735L571.694 748.104C570.322 749.789 569.067 751.401 567.92 752.936L568.721 753.534ZM561.93 763.617C562.835 762.095 563.915 760.38 565.192 758.49L564.364 757.93C563.075 759.836 561.986 761.568 561.071 763.106L561.93 763.617ZM557.334 771.521L557.804 771.692L557.804 771.692L557.805 771.691L557.807 771.684L557.819 771.653C557.83 771.624 557.846 771.581 557.869 771.523C557.914 771.407 557.985 771.233 558.083 771.002C558.279 770.539 558.585 769.85 559.024 768.952L558.125 768.513C557.678 769.428 557.365 770.133 557.162 770.612C557.06 770.851 556.987 771.034 556.938 771.157C556.914 771.219 556.896 771.267 556.883 771.299L556.87 771.336L556.866 771.346L556.865 771.349L556.864 771.35L556.864 771.35L556.864 771.35C556.864 771.35 556.864 771.35 557.334 771.521Z" fill="#F9CF00"/>
<path d="M999.421 583.101C996.421 582.901 994.321 589.501 1007.52 593.901C1020.72 598.301 1028.22 595.601 1030.62 589.801C1033.02 584.001 1014.32 567.501 989.621 569.001C981.821 570.001 965.821 580.901 989.821 597.301C999.121 603.701 1021.12 612.501 1038.22 610.101" stroke="#F9CF00" stroke-miterlimit="10"/>
<path d="M1019.12 566.901C1010.72 563.701 974.421 552.601 963.721 570.301C959.121 578.501 968.921 593.901 978.421 600.101" stroke="#F9CF00" stroke-miterlimit="10"/>
<path d="M1034.98 573.439C1036.16 570.579 1034.92 567.357 1032.22 566.242C1029.51 565.126 1026.36 566.541 1025.18 569.4C1024.01 572.26 1025.24 575.482 1027.95 576.597C1030.66 577.712 1033.81 576.298 1034.98 573.439Z" stroke="#F9CF00" stroke-miterlimit="10"/>
<path d="M990.543 608.153C991.448 605.957 990.484 603.478 988.39 602.615C986.297 601.752 983.866 602.833 982.961 605.029C982.056 607.225 983.02 609.704 985.114 610.567C987.207 611.429 989.638 610.349 990.543 608.153Z" stroke="#F9CF00" stroke-miterlimit="10"/>
<path d="M962.948 603.359C963.495 602.031 962.904 600.528 961.627 600.002C960.351 599.476 958.872 600.126 958.325 601.454C957.778 602.781 958.369 604.284 959.646 604.81C960.923 605.336 962.401 604.686 962.948 603.359Z" stroke="#F9CF00" stroke-miterlimit="10"/>
<path d="M1058.69 602.734C1059.59 600.538 1058.67 598.076 1056.63 597.234C1054.58 596.393 1052.19 597.49 1051.29 599.686C1050.39 601.882 1051.31 604.344 1053.35 605.186C1055.39 606.028 1057.78 604.93 1058.69 602.734Z" fill="#F9CF00"/>
<path fill-rule="evenodd" clip-rule="evenodd" d="M1055.22 604.433C1055.32 603.064 1055.21 601.61 1054.92 600.119C1054.79 599.441 1054.62 598.753 1054.42 598.06C1054.1 598.147 1053.79 598.289 1053.5 598.48C1053.68 599.097 1053.82 599.708 1053.94 600.309C1054.22 601.756 1054.32 603.136 1054.22 604.41C1054.55 604.477 1054.89 604.484 1055.22 604.433ZM1054.89 606.471C1054.55 606.478 1054.21 606.45 1053.88 606.384C1053.79 606.697 1053.69 607.001 1053.57 607.294C1050.97 612.477 1046.44 615.499 1040.95 617.048C1035.43 618.602 1028.96 618.663 1022.57 617.929C1009.76 616.461 997.4 611.829 993.864 609.864L993.378 610.738C997.042 612.774 1009.53 617.441 1022.45 618.923C1028.92 619.664 1035.53 619.613 1041.22 618.011C1046.92 616.405 1051.72 613.231 1054.47 607.725L1054.48 607.708L1054.48 607.691C1054.65 607.297 1054.78 606.89 1054.89 606.471ZM1052.86 596.54C1053.15 596.383 1053.46 596.255 1053.78 596.158C1053.21 594.646 1052.5 593.123 1051.66 591.631C1048.5 586.016 1043.55 580.759 1038.14 578.054L1037.7 578.948C1042.89 581.544 1047.7 586.636 1050.79 592.121C1051.61 593.585 1052.31 595.071 1052.86 596.54Z" fill="#F9CF00"/>
<path d="M957.5 137.4C959.433 137.4 961 138.967 961 140.9C961 142.833 959.433 144.4 957.5 144.4C955.567 144.4 954 142.833 954 140.9C954 138.967 955.567 137.4 957.5 137.4Z" stroke="#F9CF00" stroke-miterlimit="10" stroke-linecap="round" stroke-linejoin="round"/>
<path d="M1009.1 100.9C1011.03 100.9 1012.6 102.467 1012.6 104.4C1012.6 106.333 1011.03 107.9 1009.1 107.9C1007.17 107.9 1005.6 106.333 1005.6 104.4C1005.6 102.467 1007.17 100.9 1009.1 100.9Z" stroke="#F9CF00" stroke-miterlimit="10" stroke-linecap="round" stroke-linejoin="round"/>
<path d="M972.6 132.8C973.87 132.8 974.9 133.83 974.9 135.1C974.9 136.37 973.87 137.4 972.6 137.4C971.33 137.4 970.3 136.37 970.3 135.1C970.3 133.83 971.33 132.8 972.6 132.8Z" fill="#F9CF00" stroke="#F9CF00" stroke-miterlimit="10" stroke-linecap="round" stroke-linejoin="round"/>
<path d="M987.3 113.1C988.294 113.1 989.1 113.906 989.1 114.9C989.1 115.894 988.294 116.7 987.3 116.7C986.306 116.7 985.5 115.894 985.5 114.9C985.5 113.906 986.306 113.1 987.3 113.1Z" fill="#F9CF00" stroke="#F9CF00" stroke-miterlimit="10" stroke-linecap="round" stroke-linejoin="round"/>
<path d="M984.7 100.9C985.97 100.9 987 101.93 987 103.2C987 104.47 985.97 105.5 984.7 105.5C983.43 105.5 982.4 104.47 982.4 103.2C982.4 101.93 983.43 100.9 984.7 100.9Z" stroke="#F9CF00" stroke-miterlimit="10" stroke-linecap="round" stroke-linejoin="round"/>
<path d="M979 122.5C980.436 122.5 981.6 123.664 981.6 125.1C981.6 126.536 980.436 127.7 979 127.7C977.564 127.7 976.4 126.536 976.4 125.1C976.4 123.664 977.564 122.5 979 122.5Z" stroke="#F9CF00" stroke-miterlimit="10" stroke-linecap="round" stroke-linejoin="round"/>
<path d="M1001.2 91C1002.64 91 1003.8 92.164 1003.8 93.6C1003.8 95.0359 1002.64 96.2 1001.2 96.2C999.764 96.2 998.6 95.0359 998.6 93.6C998.6 92.164 999.764 91 1001.2 91Z" stroke="#F9CF00" stroke-miterlimit="10" stroke-linecap="round" stroke-linejoin="round"/>
<path d="M960.8 140L970.7 136.5" stroke="#F9CF00" stroke-miterlimit="10" stroke-linecap="round" stroke-linejoin="round"/>
<path d="M972.6 135.1L977.5 127.2" stroke="#F9CF00" stroke-miterlimit="10" stroke-linecap="round" stroke-linejoin="round"/>
<path d="M980.5 122.9L986.2 116.3" stroke="#F9CF00" stroke-miterlimit="10" stroke-linecap="round" stroke-linejoin="round"/>
<path d="M986.4 113.4L984.7 105.6" stroke="#F9CF00" stroke-miterlimit="10" stroke-linecap="round" stroke-linejoin="round"/>
<path d="M986.5 101.8L999 94.8" stroke="#F9CF00" stroke-miterlimit="10" stroke-linecap="round" stroke-linejoin="round"/>
<path d="M1002.9 95.5999L1007.2 101.4" stroke="#F9CF00" stroke-miterlimit="10" stroke-linecap="round" stroke-linejoin="round"/>
<path d="M1006.4 106.5L988.7 113.9" stroke="#F9CF00" stroke-miterlimit="10" stroke-linecap="round" stroke-linejoin="round"/>
<path d="M1030.1 109L1033.7 112.8" stroke="#F9CF00" stroke-miterlimit="10"/>
<path d="M1030 112.5L1033.7 109" stroke="#F9CF00" stroke-miterlimit="10"/>
<path d="M1016.7 228C1024.49 228 1030.8 221.687 1030.8 213.9C1030.8 206.113 1024.49 199.8 1016.7 199.8C1008.91 199.8 1002.6 206.113 1002.6 213.9C1002.6 221.687 1008.91 228 1016.7 228Z" stroke="#F9CF00" stroke-miterlimit="10"/>
<path d="M1021.2 220.8C1026 220.8 1029.9 216.905 1029.9 212.1C1029.9 207.295 1026 203.4 1021.2 203.4C1016.4 203.4 1012.5 207.295 1012.5 212.1C1012.5 216.905 1016.4 220.8 1021.2 220.8Z" stroke="#F9CF00" stroke-miterlimit="10"/>
</g>
</svg>
