<svg width="612" height="700" viewBox="0 0 612 700" fill="none" xmlns="http://www.w3.org/2000/svg">
<mask id="mask0_701_4097" style="mask-type:alpha" maskUnits="userSpaceOnUse" x="0" y="0" width="612" height="700">
<rect width="612" height="700" rx="25" fill="white"/>
</mask>
<g mask="url(#mask0_701_4097)">
<path d="M-263.421 396.59C-257.332 394.974 -186.699 433.44 -2.38799 333.821C181.924 234.202 173.828 149.132 247.621 94.2641C388.129 -10.1786 474.829 15.5394 583.588 -129" stroke="#BC32EA" stroke-miterlimit="10" stroke-dasharray="6 6"/>
<path d="M-60.6994 150.557C-60.6994 150.557 44.5409 129.969 144.432 49.8609C244.324 -30.2473 256.624 -72.0002 256.624 -72.0002" stroke="#BC32EA" stroke-miterlimit="10" stroke-dasharray="6 6"/>
<path d="M148.45 259.331L150.677 260.706C150.922 260.848 151.334 260.842 151.547 260.475C152.141 259.593 153.032 257.494 153.71 255.762C154.55 253.47 153.753 252.026 153.116 251.575C152.505 251.22 150.733 251.172 149.159 253.039C147.966 254.39 146.586 256.205 145.992 257.087C145.85 257.331 145.953 257.718 146.223 257.957L148.45 259.331Z" stroke="#BC32EA" stroke-miterlimit="10" stroke-linecap="round" stroke-linejoin="round"/>
<path d="M157.393 252.095C157.341 251.902 157.387 251.683 157.458 251.56C158.31 250.093 163.002 242.433 163.189 241.969C163.305 241.628 162.8 238.554 162.66 237.247C162.628 236.738 162.017 236.383 161.559 236.608C160.328 237.038 157.287 238.052 157.048 238.322C156.738 238.715 152.143 246.349 151.194 247.843C151.123 247.965 150.956 248.113 150.763 248.164L143.721 249.309C143.527 249.361 143.334 249.412 143.289 249.631L141.985 251.736C141.843 251.98 141.849 252.393 142.216 252.606L147.256 255.613C147.875 254.828 148.566 253.921 149.211 253.232C150.81 251.462 152.459 251.439 153.168 251.768C153.779 252.123 154.602 253.663 153.762 255.956C153.387 256.883 152.941 257.932 152.567 258.859L157.607 261.867C157.852 262.009 158.264 262.003 158.477 261.636L159.781 259.531C159.852 259.409 159.897 259.19 159.846 258.997L157.393 252.095Z" stroke="#BC32EA" stroke-miterlimit="10" stroke-linecap="round" stroke-linejoin="round"/>
<path d="M126.29 276.801C115.64 273.317 104.76 262.341 102.127 249.693C99.4941 237.045 98.9529 214.737 122.335 204.599C133.903 199.46 147.756 196.3 165.682 208.096" stroke="#BC32EA" stroke-miterlimit="10" stroke-linecap="round" stroke-linejoin="round"/>
<path d="M174.836 218.806C174.836 218.806 184.617 239.282 177.766 253.619C170.915 267.957 158.799 278.829 139.692 279.348" stroke="#BC32EA" stroke-miterlimit="10" stroke-linecap="round" stroke-linejoin="round"/>
<path d="M109.335 271.783C108.21 276.117 108.443 285.573 114.413 287.403C120.382 289.233 131.283 281.58 144.947 263.675" stroke="#BC32EA" stroke-miterlimit="10" stroke-linecap="round" stroke-linejoin="round"/>
<path d="M164.342 231.11C164.342 231.11 177.698 200.354 169.649 192.247C165.422 188.403 155.055 196.121 155.055 196.121" stroke="#BC32EA" stroke-miterlimit="10" stroke-linecap="round" stroke-linejoin="round"/>
<path d="M198.107 254.634C199.015 254.393 199.555 253.462 199.314 252.555C199.073 251.648 198.142 251.107 197.235 251.348C196.327 251.589 195.787 252.52 196.028 253.427C196.269 254.335 197.2 254.875 198.107 254.634Z" stroke="#BC32EA" stroke-miterlimit="10" stroke-linecap="round" stroke-linejoin="round"/>
<path d="M45.292 246.473C56.0249 243.624 62.4161 232.614 59.5672 221.881C56.7183 211.148 45.7082 204.757 34.9753 207.605C24.2423 210.454 17.8507 221.465 20.6996 232.198C23.5485 242.931 34.559 249.322 45.292 246.473Z" stroke="#BC32EA" stroke-miterlimit="10" stroke-linecap="round" stroke-linejoin="round"/>
<path d="M118.793 186.192L123.274 189.038" stroke="#BC32EA" stroke-miterlimit="10" stroke-linecap="round" stroke-linejoin="round"/>
<path d="M119.691 189.575L122.273 185.268" stroke="#BC32EA" stroke-miterlimit="10" stroke-linecap="round" stroke-linejoin="round"/>
<path d="M163.071 294.145L167.551 296.991" stroke="#BC32EA" stroke-miterlimit="10"/>
<path d="M163.872 297.554L166.55 293.222" stroke="#BC32EA" stroke-miterlimit="10"/>
<path d="M398.32 73.8182L397.37 81.9335" stroke="#F24860" stroke-miterlimit="10" stroke-linecap="round" stroke-linejoin="round"/>
<path d="M394.052 77.2275L401.922 78.0354" stroke="#F24860" stroke-miterlimit="10" stroke-linecap="round" stroke-linejoin="round"/>
<path d="M315.067 70.2597C319.177 69.1687 321.625 64.9523 320.534 60.842C319.443 56.7318 315.227 54.2842 311.116 55.3752C307.006 56.4662 304.558 60.6826 305.649 64.7929C306.74 68.9031 310.957 71.3507 315.067 70.2597Z" stroke="#BC32EA" stroke-miterlimit="10" stroke-linecap="round" stroke-linejoin="round"/>
<path d="M316.219 66.0225C318.674 65.3707 320.136 62.8518 319.484 60.3963C318.833 57.9409 316.314 56.4786 313.858 57.1304C311.403 57.7822 309.941 60.3011 310.592 62.7566C311.244 65.2121 313.763 66.6743 316.219 66.0225Z" stroke="#BC32EA" stroke-miterlimit="10" stroke-linecap="round" stroke-linejoin="round"/>
<path d="M332.538 40.5841C333.499 40.3291 334.071 39.3434 333.816 38.3826C333.561 37.4217 332.576 36.8496 331.615 37.1046C330.654 37.3597 330.082 38.3453 330.337 39.3062C330.592 40.267 331.578 40.8392 332.538 40.5841Z" stroke="#BC32EA" stroke-miterlimit="10" stroke-linecap="round" stroke-linejoin="round"/>
<path d="M331.713 169.614C332.621 169.374 333.161 168.443 332.92 167.535C332.68 166.628 331.749 166.087 330.841 166.328C329.934 166.569 329.393 167.5 329.634 168.408C329.875 169.315 330.806 169.855 331.713 169.614Z" fill="#BC32EA"/>
<path fill-rule="evenodd" clip-rule="evenodd" d="M722.526 458.496C723.154 458.186 723.684 457.947 724.116 457.778C724.556 457.607 724.865 457.52 725.061 457.496L724.939 456.504C724.617 456.543 724.214 456.667 723.753 456.847C723.284 457.029 722.726 457.282 722.083 457.599L722.526 458.496ZM712.321 464.355C714.194 463.21 715.888 462.193 717.393 461.316L716.889 460.452C715.377 461.334 713.676 462.354 711.799 463.502L712.321 464.355ZM702.333 470.596C704.083 469.486 705.749 468.435 707.326 467.449L706.795 466.601C705.217 467.589 703.549 468.641 701.797 469.752L702.333 470.596ZM692.355 476.978C694.073 475.872 695.738 474.803 697.345 473.775L696.806 472.933C695.198 473.961 693.533 475.03 691.814 476.137L692.355 476.978ZM682.463 483.363C684.145 482.274 685.789 481.211 687.393 480.176L686.851 479.336C685.247 480.371 683.602 481.435 681.919 482.523L682.463 483.363ZM672.523 489.803C674.215 488.706 675.877 487.629 677.507 486.572L676.963 485.733C675.333 486.789 673.671 487.867 671.979 488.964L672.523 489.803ZM662.64 496.208C664.312 495.124 665.962 494.056 667.586 493.002L667.043 492.163C665.418 493.216 663.768 494.285 662.096 495.368L662.64 496.208ZM652.719 502.626C654.383 501.551 656.028 500.488 657.653 499.436L657.11 498.596C655.485 499.648 653.84 500.712 652.176 501.786L652.719 502.626ZM642.778 509.037C644.453 507.96 646.112 506.891 647.754 505.831L647.212 504.991C645.57 506.05 643.911 507.119 642.237 508.196L642.778 509.037ZM632.834 515.422C634.511 514.348 636.176 513.28 637.827 512.22L637.287 511.378C635.636 512.438 633.972 513.506 632.295 514.58L632.834 515.422ZM622.89 521.771C624.563 520.706 626.227 519.645 627.879 518.591L627.341 517.748C625.689 518.802 624.026 519.863 622.353 520.928L622.89 521.771ZM612.921 528.096C614.593 527.039 616.256 525.985 617.911 524.936L617.375 524.091C615.721 525.141 614.058 526.194 612.387 527.25L612.921 528.096ZM602.927 534.389C604.599 533.34 606.265 532.294 607.923 531.249L607.39 530.403C605.732 531.447 604.067 532.493 602.396 533.542L602.927 534.389ZM592.908 540.645C594.582 539.605 596.251 538.565 597.914 537.526L597.384 536.678C595.722 537.716 594.054 538.756 592.381 539.796L592.908 540.645ZM582.862 546.859C584.539 545.828 586.212 544.795 587.881 543.762L587.355 542.912C585.687 543.944 584.014 544.976 582.338 546.008L582.862 546.859ZM572.786 553.027C574.468 552.003 576.148 550.978 577.824 549.952L577.302 549.099C575.626 550.125 573.947 551.149 572.267 552.172L572.786 553.027ZM562.678 559.141C564.365 558.127 566.051 557.11 567.736 556.091L567.218 555.235C565.534 556.254 563.849 557.27 562.163 558.284L562.678 559.141ZM552.535 565.195C554.227 564.193 555.919 563.186 557.612 562.175L557.099 561.317C555.408 562.327 553.716 563.333 552.025 564.335L552.535 565.195ZM542.352 571.183C544.049 570.193 545.748 569.198 547.449 568.198L546.942 567.336C545.243 568.335 543.544 569.33 541.848 570.319L542.352 571.183ZM533.999 576.02C535.079 575.399 536.161 574.776 537.243 574.15L536.742 573.285C535.459 574.027 534.177 574.766 532.896 575.501C533.266 575.672 533.634 575.845 533.999 576.02ZM445.277 618.169C447.215 617.577 449.164 616.958 451.124 616.311L450.81 615.361C448.857 616.006 446.916 616.623 444.985 617.213L445.277 618.169ZM433.511 621.476C435.468 620.972 437.433 620.444 439.408 619.889L439.137 618.926C437.17 619.479 435.212 620.005 433.262 620.508L433.511 621.476ZM421.606 624.278C423.592 623.852 425.583 623.406 427.58 622.936L427.351 621.963C425.36 622.431 423.376 622.876 421.397 623.3L421.606 624.278ZM409.61 626.618C411.61 626.264 413.612 625.892 415.617 625.502L415.425 624.52C413.426 624.91 411.43 625.28 409.436 625.633L409.61 626.618ZM397.547 628.574C399.561 628.275 401.574 627.964 403.587 627.638L403.427 626.651C401.419 626.976 399.41 627.286 397.4 627.585L397.547 628.574ZM385.446 630.239C387.468 629.979 389.486 629.713 391.499 629.436L391.363 628.445C389.353 628.721 387.338 628.988 385.318 629.247L385.446 630.239ZM373.315 631.722C375.346 631.483 377.369 631.242 379.385 630.996L379.264 630.004C377.249 630.249 375.228 630.49 373.198 630.729L373.315 631.722ZM361.199 633.127C362.313 632.998 363.423 632.87 364.53 632.742C365.442 632.637 366.351 632.532 367.258 632.427L367.143 631.434C366.225 631.54 365.305 631.646 364.383 631.753C363.286 631.879 362.187 632.006 361.084 632.134L361.199 633.127ZM349.062 634.56C351.1 634.312 353.124 634.071 355.135 633.834L355.018 632.841C353.006 633.078 350.981 633.319 348.942 633.568L349.062 634.56ZM336.978 636.101C339.007 635.829 341.021 635.566 343.02 635.312L342.894 634.32C340.893 634.574 338.877 634.837 336.845 635.11L336.978 636.101ZM324.885 637.829C326.916 637.52 328.93 637.224 330.927 636.939L330.786 635.949C328.786 636.234 326.769 636.531 324.735 636.841L324.885 637.829ZM312.859 639.789C314.884 639.436 316.89 639.099 318.879 638.775L318.718 637.788C316.726 638.112 314.716 638.45 312.688 638.804L312.859 639.789ZM300.878 642.02C302.884 641.621 304.871 641.239 306.841 640.873L306.658 639.889C304.685 640.257 302.693 640.64 300.683 641.039L300.878 642.02ZM288.932 644.549C290.938 644.098 292.924 643.664 294.892 643.248L294.685 642.269C292.713 642.687 290.722 643.121 288.713 643.573L288.932 644.549ZM277.047 647.383C279.053 646.877 281.041 646.39 283.01 645.921L282.778 644.948C280.805 645.418 278.813 645.906 276.802 646.413L277.047 647.383ZM265.283 650.508C267.269 649.954 269.236 649.418 271.185 648.9L270.928 647.934C268.975 648.453 267.004 648.989 265.014 649.545L265.283 650.508ZM253.591 653.932C255.556 653.33 257.503 652.747 259.432 652.182L259.151 651.223C257.218 651.789 255.267 652.373 253.299 652.976L253.591 653.932ZM241.98 657.643C243.925 656.996 245.852 656.367 247.762 655.757L247.457 654.804C245.544 655.416 243.613 656.045 241.664 656.694L241.98 657.643ZM230.454 661.626C232.381 660.935 234.291 660.263 236.185 659.609L235.858 658.663C233.961 659.319 232.047 659.993 230.117 660.684L230.454 661.626ZM219.016 665.867C220.928 665.134 222.824 664.42 224.705 663.722L224.357 662.785C222.473 663.483 220.574 664.199 218.658 664.933L219.016 665.867ZM210.44 669.229C211.405 668.842 212.366 668.46 213.323 668.082L212.955 667.151C211.997 667.53 211.034 667.913 210.068 668.301C209.1 668.689 208.138 669.078 207.181 669.467L207.558 670.393C208.513 670.004 209.473 669.616 210.44 669.229ZM196.291 675.111C198.137 674.316 200.006 673.521 201.9 672.728L201.514 671.806C199.617 672.6 197.744 673.396 195.895 674.193L196.291 675.111ZM185.12 680.07C186.946 679.236 188.796 678.402 190.672 677.569L190.266 676.655C188.387 677.489 186.533 678.325 184.704 679.161L185.12 680.07ZM174.059 685.285C175.865 684.408 177.698 683.53 179.558 682.653L179.131 681.749C177.268 682.627 175.431 683.506 173.622 684.386L174.059 685.285ZM163.124 690.771C164.911 689.845 166.727 688.92 168.572 687.995L168.123 687.101C166.274 688.028 164.455 688.955 162.664 689.883L163.124 690.771ZM152.34 696.54C154.106 695.563 155.904 694.585 157.734 693.607L157.262 692.725C155.428 693.706 153.626 694.686 151.856 695.665L152.34 696.54ZM141.736 702.605C143.477 701.575 145.251 700.542 147.061 699.507L146.565 698.639C144.751 699.676 142.972 700.712 141.227 701.745L141.736 702.605ZM131.353 708.975C133.036 707.905 134.754 706.831 136.51 705.754L135.987 704.902C134.227 705.981 132.503 707.058 130.816 708.131L131.353 708.975ZM121.134 715.727C122.78 714.596 124.467 713.46 126.194 712.319L125.643 711.484C123.911 712.629 122.219 713.768 120.568 714.902L121.134 715.727ZM111.204 722.827C112.812 721.628 114.466 720.421 116.165 719.207L115.584 718.393C113.879 719.611 112.22 720.822 110.606 722.025L111.204 722.827ZM101.557 730.336C103.098 729.081 104.69 727.814 106.333 726.535L105.719 725.746C104.07 727.029 102.472 728.301 100.925 729.561L101.557 730.336ZM92.2891 738.252C93.76 736.932 95.2879 735.594 96.8747 734.239L96.2254 733.478C94.6324 734.839 93.0982 736.182 91.6211 737.508L92.2891 738.252ZM83.4287 746.645C84.8192 745.252 86.2767 743.831 87.8043 742.385L87.1168 741.659C85.5824 743.111 84.118 744.539 82.7209 745.939L83.4287 746.645ZM75.0677 755.564C76.3535 754.098 77.7214 752.588 79.1761 751.038L78.4469 750.353C76.9845 751.912 75.6091 753.43 74.316 754.904L75.0677 755.564ZM67.3869 765.013C68.5256 763.49 69.7723 761.888 71.1353 760.214L70.3598 759.582C68.9881 761.267 67.7329 762.88 66.586 764.414L67.3869 765.013ZM60.596 775.096C61.5011 773.574 62.5805 771.859 63.8579 769.969L63.0294 769.409C61.7411 771.315 60.6514 773.046 59.7365 774.585L60.596 775.096ZM56 783L56.4698 783.171L56.4699 783.171L56.4704 783.169L56.473 783.162L56.4846 783.131C56.4953 783.103 56.5118 783.06 56.5346 783.002C56.5801 782.886 56.6505 782.712 56.7484 782.48C56.9444 782.018 57.2507 781.329 57.6893 780.431L56.7908 779.992C56.3442 780.906 56.0305 781.612 55.8277 782.09C55.7263 782.33 55.6526 782.512 55.6039 782.636C55.5796 782.698 55.5615 782.745 55.5493 782.778L55.5354 782.815L55.5316 782.825L55.5306 782.828L55.5303 782.829L55.5301 782.829L55.5301 782.829C55.5301 782.829 55.5301 782.829 56 783Z" fill="#F9CF00"/>
<path d="M498.087 594.58C495.087 594.38 492.987 600.98 506.187 605.38C519.387 609.78 526.887 607.08 529.287 601.28C531.687 595.48 512.987 578.98 488.287 580.48C480.487 581.48 464.487 592.38 488.487 608.78C497.787 615.18 519.787 623.98 536.887 621.58" stroke="#F9CF00" stroke-miterlimit="10"/>
<path d="M517.787 578.38C509.387 575.18 473.087 564.08 462.387 581.78C457.787 589.98 467.587 605.38 477.087 611.58" stroke="#F9CF00" stroke-miterlimit="10"/>
<path d="M533.65 584.917C534.829 582.058 533.59 578.836 530.883 577.72C528.177 576.605 525.028 578.019 523.849 580.879C522.671 583.738 523.91 586.961 526.616 588.076C529.323 589.191 532.472 587.777 533.65 584.917Z" stroke="#F9CF00" stroke-miterlimit="10"/>
<path d="M489.208 619.632C490.113 617.436 489.149 614.957 487.056 614.094C484.962 613.231 482.531 614.312 481.627 616.508C480.722 618.703 481.686 621.183 483.779 622.045C485.873 622.908 488.303 621.828 489.208 619.632Z" stroke="#F9CF00" stroke-miterlimit="10"/>
<path d="M461.614 614.837C462.161 613.51 461.57 612.007 460.293 611.481C459.016 610.955 457.538 611.605 456.991 612.932C456.444 614.26 457.035 615.763 458.312 616.289C459.588 616.815 461.067 616.165 461.614 614.837Z" stroke="#F9CF00" stroke-miterlimit="10"/>
<path d="M557.353 614.213C558.258 612.017 557.335 609.555 555.293 608.713C553.25 607.871 550.861 608.969 549.956 611.165C549.051 613.361 549.973 615.823 552.016 616.665C554.059 617.506 556.448 616.409 557.353 614.213Z" fill="#F9CF00"/>
<path fill-rule="evenodd" clip-rule="evenodd" d="M553.886 615.911C553.987 614.543 553.876 613.089 553.587 611.597C553.456 610.92 553.287 610.232 553.084 609.538C552.764 609.626 552.453 609.768 552.165 609.959C552.342 610.576 552.489 611.187 552.605 611.788C552.886 613.234 552.985 614.614 552.884 615.889C553.213 615.956 553.552 615.962 553.886 615.911ZM553.554 617.949C553.219 617.957 552.88 617.929 552.542 617.862C552.454 618.176 552.351 618.48 552.231 618.773C549.633 623.956 545.109 626.978 539.612 628.527C534.098 630.08 527.63 630.142 521.231 629.408C508.427 627.94 496.066 623.307 492.53 621.343L492.044 622.217C495.708 624.252 508.197 628.92 521.117 630.402C527.582 631.143 534.194 631.092 539.883 629.489C545.583 627.883 550.381 624.71 553.134 619.204L553.142 619.187L553.149 619.169C553.311 618.776 553.445 618.369 553.554 617.949ZM551.523 608.018C551.82 607.861 552.13 607.733 552.448 607.637C551.88 606.124 551.163 604.602 550.322 603.11C547.161 597.495 542.22 592.238 536.81 589.533L536.363 590.427C541.553 593.022 546.362 598.115 549.451 603.6C550.275 605.064 550.974 606.55 551.523 608.018Z" fill="#F9CF00"/>
<path d="M491.5 202.4C493.433 202.4 495 203.967 495 205.9C495 207.833 493.433 209.4 491.5 209.4C489.567 209.4 488 207.833 488 205.9C488 203.967 489.567 202.4 491.5 202.4Z" stroke="#F9CF00" stroke-miterlimit="10" stroke-linecap="round" stroke-linejoin="round"/>
<path d="M543.101 165.9C545.034 165.9 546.601 167.467 546.601 169.4C546.601 171.333 545.034 172.9 543.101 172.9C541.168 172.9 539.601 171.333 539.601 169.4C539.601 167.467 541.168 165.9 543.101 165.9Z" stroke="#F9CF00" stroke-miterlimit="10" stroke-linecap="round" stroke-linejoin="round"/>
<path d="M506.601 197.8C507.871 197.8 508.901 198.83 508.901 200.1C508.901 201.37 507.871 202.4 506.601 202.4C505.33 202.4 504.301 201.37 504.301 200.1C504.301 198.83 505.33 197.8 506.601 197.8Z" fill="#F9CF00" stroke="#F9CF00" stroke-miterlimit="10" stroke-linecap="round" stroke-linejoin="round"/>
<path d="M521.3 178.1C522.295 178.1 523.1 178.906 523.1 179.9C523.1 180.894 522.295 181.7 521.3 181.7C520.306 181.7 519.5 180.894 519.5 179.9C519.5 178.906 520.306 178.1 521.3 178.1Z" fill="#F9CF00" stroke="#F9CF00" stroke-miterlimit="10" stroke-linecap="round" stroke-linejoin="round"/>
<path d="M518.7 165.9C519.971 165.9 521 166.93 521 168.2C521 169.47 519.971 170.5 518.7 170.5C517.43 170.5 516.4 169.47 516.4 168.2C516.4 166.93 517.43 165.9 518.7 165.9Z" stroke="#F9CF00" stroke-miterlimit="10" stroke-linecap="round" stroke-linejoin="round"/>
<path d="M513 187.5C514.436 187.5 515.6 188.664 515.6 190.1C515.6 191.536 514.436 192.7 513 192.7C511.564 192.7 510.4 191.536 510.4 190.1C510.4 188.664 511.564 187.5 513 187.5Z" stroke="#F9CF00" stroke-miterlimit="10" stroke-linecap="round" stroke-linejoin="round"/>
<path d="M535.201 156C536.637 156 537.801 157.164 537.801 158.6C537.801 160.036 536.637 161.2 535.201 161.2C533.765 161.2 532.601 160.036 532.601 158.6C532.601 157.164 533.765 156 535.201 156Z" stroke="#F9CF00" stroke-miterlimit="10" stroke-linecap="round" stroke-linejoin="round"/>
<path d="M494.801 205L504.701 201.5" stroke="#F9CF00" stroke-miterlimit="10" stroke-linecap="round" stroke-linejoin="round"/>
<path d="M506.601 200.1L511.501 192.2" stroke="#F9CF00" stroke-miterlimit="10" stroke-linecap="round" stroke-linejoin="round"/>
<path d="M514.5 187.9L520.2 181.3" stroke="#F9CF00" stroke-miterlimit="10" stroke-linecap="round" stroke-linejoin="round"/>
<path d="M520.4 178.4L518.7 170.6" stroke="#F9CF00" stroke-miterlimit="10" stroke-linecap="round" stroke-linejoin="round"/>
<path d="M520.5 166.8L533 159.8" stroke="#F9CF00" stroke-miterlimit="10" stroke-linecap="round" stroke-linejoin="round"/>
<path d="M536.9 160.6L541.2 166.4" stroke="#F9CF00" stroke-miterlimit="10" stroke-linecap="round" stroke-linejoin="round"/>
<path d="M540.4 171.5L522.7 178.9" stroke="#F9CF00" stroke-miterlimit="10" stroke-linecap="round" stroke-linejoin="round"/>
<path d="M564.101 174L567.701 177.8" stroke="#F9CF00" stroke-miterlimit="10"/>
<path d="M564 177.5L567.7 174" stroke="#F9CF00" stroke-miterlimit="10"/>
<path d="M550.701 293C558.488 293 564.801 286.687 564.801 278.9C564.801 271.113 558.488 264.8 550.701 264.8C542.913 264.8 536.601 271.113 536.601 278.9C536.601 286.687 542.913 293 550.701 293Z" stroke="#F9CF00" stroke-miterlimit="10"/>
<path d="M555.2 285.8C560.005 285.8 563.9 281.905 563.9 277.1C563.9 272.295 560.005 268.4 555.2 268.4C550.396 268.4 546.5 272.295 546.5 277.1C546.5 281.905 550.396 285.8 555.2 285.8Z" stroke="#F9CF00" stroke-miterlimit="10"/>
</g>
</svg>
