<svg width="20" height="20" viewBox="0 0 20 20" fill="none" xmlns="http://www.w3.org/2000/svg">
<path d="M15.3755 0.294957L1.99168 5.85688C1.48493 6.06698 1.04898 6.41788 0.735459 6.86804C0.421934 7.3182 0.243958 7.84877 0.222601 8.39694C0.201244 8.94511 0.3374 9.48792 0.61495 9.96111C0.8925 10.4343 1.29982 10.8181 1.78869 11.0669L6.11237 13.3066L8.32496 17.6573C8.57209 18.1509 8.95628 18.5628 9.43151 18.8436C9.90674 19.1245 10.4529 19.2623 11.0044 19.2407C11.7147 19.2139 12.3898 18.9246 12.899 18.4287C13.1659 18.1614 13.3775 17.8441 13.5215 17.495L19.1173 4.07733C19.3335 3.55311 19.3897 2.97659 19.2786 2.42049C19.1676 1.86439 18.8944 1.35363 18.4934 0.952643C18.0924 0.55166 17.5817 0.278419 17.0256 0.167392C16.4695 0.0563645 15.8929 0.112525 15.3687 0.328789L15.3755 0.294957ZM11.7623 16.7236C11.6921 16.8922 11.5752 17.0372 11.4254 17.1415C11.2755 17.2458 11.0989 17.3051 10.9165 17.3123C10.7418 17.3162 10.5694 17.2723 10.4179 17.1852C10.2664 17.0982 10.1416 16.9713 10.0571 16.8183L7.99341 12.7788L17.2836 3.48866L11.7623 16.7236ZM6.64015 11.4256L2.60742 9.4092C2.45448 9.32471 2.32759 9.19996 2.24052 9.04847C2.15344 8.89699 2.10951 8.72456 2.11348 8.54987C2.11035 8.4194 2.13395 8.28966 2.18283 8.16865C2.2317 8.04763 2.30481 7.93789 2.39766 7.84618C2.48854 7.75565 2.59669 7.68432 2.71568 7.63642L15.9303 2.1354L6.64015 11.4256Z" fill="#6C6767"/>
</svg>
