<svg width="17" height="10" viewBox="0 0 17 10" fill="none" xmlns="http://www.w3.org/2000/svg">
<path d="M16.4022 0.465522C16.1023 0.167358 15.6965 0 15.2736 0C14.8507 0 14.4449 0.167358 14.145 0.465522L8.39786 6.13261L2.73077 0.465522C2.43082 0.167358 2.02508 0 1.60215 0C1.17922 0 0.773479 0.167358 0.473536 0.465522C0.323488 0.614344 0.204392 0.791402 0.123118 0.986483C0.0418436 1.18156 0 1.39081 0 1.60214C0 1.81348 0.0418436 2.02272 0.123118 2.2178C0.204392 2.41288 0.323488 2.58994 0.473536 2.73876L7.26124 9.52646C7.41006 9.67651 7.58712 9.79561 7.7822 9.87688C7.97728 9.95816 8.18652 10 8.39786 10C8.60919 10 8.81843 9.95816 9.01352 9.87688C9.2086 9.79561 9.38566 9.67651 9.53448 9.52646L16.4022 2.73876C16.5523 2.58994 16.6714 2.41288 16.7526 2.2178C16.8339 2.02272 16.8758 1.81348 16.8758 1.60214C16.8758 1.39081 16.8339 1.18156 16.7526 0.986483C16.6714 0.791402 16.5523 0.614344 16.4022 0.465522Z" fill="#F24860"/>
</svg>
