<svg width="16" height="17" viewBox="0 0 16 17" fill="none" xmlns="http://www.w3.org/2000/svg">
<path d="M1 4.33333H14.3333M13.5 4.33333L12.7775 14.4517C12.7476 14.8722 12.5594 15.2657 12.2509 15.553C11.9424 15.8403 11.5366 16 11.115 16H4.21833C3.79678 16 3.39089 15.8403 3.0824 15.553C2.77392 15.2657 2.58576 14.8722 2.55583 14.4517L1.83333 4.33333H13.5ZM6 7.66667V12.6667V7.66667ZM9.33333 7.66667V12.6667V7.66667ZM10.1667 4.33333V1.83333C10.1667 1.61232 10.0789 1.40036 9.92259 1.24408C9.76631 1.0878 9.55435 1 9.33333 1H6C5.77899 1 5.56702 1.0878 5.41074 1.24408C5.25446 1.40036 5.16667 1.61232 5.16667 1.83333V4.33333H10.1667Z" stroke="white" stroke-width="2" stroke-linecap="round" stroke-linejoin="round"/>
</svg>
